<svg xmlns="http://www.w3.org/2000/svg" width="2200" height="1180" viewBox="0 0 2200 1180">
<rect width="2200" height="1180" fill="white"/>
<defs><marker id="arr" markerWidth="10" markerHeight="10" refX="8" refY="5" orient="auto"><path d="M0,0 L10,5 L0,10 z" fill="#333"/></marker><marker id="arrg" markerWidth="10" markerHeight="10" refX="8" refY="5" orient="auto"><path d="M0,0 L10,5 L0,10 z" fill="#999"/></marker></defs>
<text x="40" y="40" font-size="18" text-anchor="start" font-weight="bold" fill="#222" font-family="WenQuanYi Zen Hei, Noto Sans CJK TC, Arial, sans-serif" >A.  整場流程(GRTv3_ada.py)</text>
<rect x="40" y="60" width="150" height="64" rx="6" fill="#eeeeee" stroke="#555" stroke-width="1.2"/>
<text x="115.0" y="82" font-size="14" text-anchor="middle" font-weight="bold" fill="#222" font-family="WenQuanYi Zen Hei, Noto Sans CJK TC, Arial, sans-serif" >說明</text>
<text x="115.0" y="100" font-size="11" text-anchor="middle" font-weight="normal" fill="#444" font-family="WenQuanYi Zen Hei, Noto Sans CJK TC, Arial, sans-serif" >Intro + 指導語</text>
<line x1="192" y1="92.0" x2="216" y2="92.0" stroke="#333" stroke-width="1.6" marker-end="url(#arr)"/>
<rect x="218" y="60" width="250" height="64" rx="6" fill="#dfe6f5" stroke="#555" stroke-width="1.2"/>
<text x="343.0" y="82" font-size="14" text-anchor="middle" font-weight="bold" fill="#222" font-family="WenQuanYi Zen Hei, Noto Sans CJK TC, Arial, sans-serif" >Part 1  顏色校準</text>
<text x="343.0" y="100" font-size="11" text-anchor="middle" font-weight="normal" fill="#444" font-family="WenQuanYi Zen Hei, Noto Sans CJK TC, Arial, sans-serif" >72 試 · Psi 調顏色距離</text>
<text x="343.0" y="114" font-size="11" text-anchor="middle" font-weight="normal" fill="#444" font-family="WenQuanYi Zen Hei, Noto Sans CJK TC, Arial, sans-serif" >聲音固定 +12 dB · 有回饋</text>
<line x1="470" y1="92.0" x2="494" y2="92.0" stroke="#333" stroke-width="1.6" marker-end="url(#arr)"/>
<text x="482" y="84.0" font-size="9" text-anchor="middle" font-weight="normal" fill="#666" font-family="WenQuanYi Zen Hei, Noto Sans CJK TC, Arial, sans-serif" >rest</text>
<rect x="496" y="60" width="250" height="64" rx="6" fill="#e8dff2" stroke="#555" stroke-width="1.2"/>
<text x="621.0" y="82" font-size="14" text-anchor="middle" font-weight="bold" fill="#222" font-family="WenQuanYi Zen Hei, Noto Sans CJK TC, Arial, sans-serif" >Part 2  聲音校準</text>
<text x="621.0" y="100" font-size="11" text-anchor="middle" font-weight="normal" fill="#444" font-family="WenQuanYi Zen Hei, Noto Sans CJK TC, Arial, sans-serif" >72 試 · Psi 調 SNR</text>
<text x="621.0" y="114" font-size="11" text-anchor="middle" font-weight="normal" fill="#444" font-family="WenQuanYi Zen Hei, Noto Sans CJK TC, Arial, sans-serif" >顏色固定錨點色 · 有回饋</text>
<line x1="748" y1="92.0" x2="772" y2="92.0" stroke="#333" stroke-width="1.6" marker-end="url(#arr)"/>
<text x="760" y="84.0" font-size="9" text-anchor="middle" font-weight="normal" fill="#666" font-family="WenQuanYi Zen Hei, Noto Sans CJK TC, Arial, sans-serif" >rest</text>
<rect x="774" y="60" width="190" height="64" rx="6" fill="#f3ead9" stroke="#555" stroke-width="1.2"/>
<text x="869.0" y="82" font-size="14" text-anchor="middle" font-weight="bold" fill="#222" font-family="WenQuanYi Zen Hei, Noto Sans CJK TC, Arial, sans-serif" >練習</text>
<text x="869.0" y="100" font-size="11" text-anchor="middle" font-weight="normal" fill="#444" font-family="WenQuanYi Zen Hei, Noto Sans CJK TC, Arial, sans-serif" >15 試 · 用校準值</text>
<text x="869.0" y="114" font-size="11" text-anchor="middle" font-weight="normal" fill="#444" font-family="WenQuanYi Zen Hei, Noto Sans CJK TC, Arial, sans-serif" >2:1 valid · 有回饋</text>
<line x1="966" y1="92.0" x2="990" y2="92.0" stroke="#333" stroke-width="1.6" marker-end="url(#arr)"/>
<text x="978" y="84.0" font-size="9" text-anchor="middle" font-weight="normal" fill="#666" font-family="WenQuanYi Zen Hei, Noto Sans CJK TC, Arial, sans-serif" >rest</text>
<rect x="992" y="60" width="300" height="64" rx="6" fill="#dcefe0" stroke="#555" stroke-width="1.2"/>
<text x="1142.0" y="82" font-size="14" text-anchor="middle" font-weight="bold" fill="#222" font-family="WenQuanYi Zen Hei, Noto Sans CJK TC, Arial, sans-serif" >主實驗</text>
<text x="1142.0" y="100" font-size="11" text-anchor="middle" font-weight="normal" fill="#444" font-family="WenQuanYi Zen Hei, Noto Sans CJK TC, Arial, sans-serif" >4 blocks × 144 = 576 試</text>
<text x="1142.0" y="114" font-size="11" text-anchor="middle" font-weight="normal" fill="#444" font-family="WenQuanYi Zen Hei, Noto Sans CJK TC, Arial, sans-serif" >2:1 valid · 無回饋</text>
<line x1="1294" y1="92.0" x2="1318" y2="92.0" stroke="#333" stroke-width="1.6" marker-end="url(#arr)"/>
<text x="1306" y="84.0" font-size="9" text-anchor="middle" font-weight="normal" fill="#666" font-family="WenQuanYi Zen Hei, Noto Sans CJK TC, Arial, sans-serif" >rest</text>
<rect x="1320" y="60" width="110" height="64" rx="6" fill="#eeeeee" stroke="#555" stroke-width="1.2"/>
<text x="1375.0" y="82" font-size="14" text-anchor="middle" font-weight="bold" fill="#222" font-family="WenQuanYi Zen Hei, Noto Sans CJK TC, Arial, sans-serif" >結束</text>
<text x="1375.0" y="100" font-size="11" text-anchor="middle" font-weight="normal" fill="#444" font-family="WenQuanYi Zen Hei, Noto Sans CJK TC, Arial, sans-serif" >存檔</text>
<text x="40" y="150" font-size="12" text-anchor="start" font-weight="normal" fill="#444" font-family="WenQuanYi Zen Hei, Noto Sans CJK TC, Arial, sans-serif" >每個階段的每一試都是同一套流程(B):校準試次全部 valid,主實驗每 block 後休息。校準時「另一維」四個項目相同,只校被調的那一維。</text>
<text x="40" y="200" font-size="18" text-anchor="start" font-weight="bold" fill="#222" font-family="WenQuanYi Zen Hei, Noto Sans CJK TC, Arial, sans-serif" >B.  單一試次(valid 試次示例;時間為螢幕上的相對時間)</text>
<rect x="44" y="230" width="196" height="147" rx="4" fill="#000" opacity="0.18"/>
<rect x="40" y="225" width="196" height="147" rx="4" fill="#7f7f7f" stroke="#333" stroke-width="1.6"/>
<path d="M131.0,298.5 h14 M138.0,291.5 v14" stroke="white" stroke-width="2"/>
<text x="138.0" y="394" font-size="14" text-anchor="middle" font-weight="bold" fill="#222" font-family="WenQuanYi Zen Hei, Noto Sans CJK TC, Arial, sans-serif" >注視</text>
<text x="138.0" y="412" font-size="12" text-anchor="middle" font-weight="normal" fill="#444" font-family="WenQuanYi Zen Hei, Noto Sans CJK TC, Arial, sans-serif" >0 – 0.3 s</text>
<rect x="262" y="300" width="196" height="147" rx="4" fill="#000" opacity="0.18"/>
<rect x="258" y="295" width="196" height="147" rx="4" fill="#7f7f7f" stroke="#333" stroke-width="1.6"/>
<path d="M349.0,368.5 h14 M356.0,361.5 v14" stroke="white" stroke-width="2"/>
<rect x="287.0" y="313.5" width="30" height="30" fill="#A273AE"/>
<g transform="translate(333.0,328.5) scale(0.9)"><path d="M-9,-4 h5 l6,-5 v18 l-6,-5 h-5 z" fill="white"/>
<path d="M5,-4 a6,6 0 0 1 0,8" stroke="white" stroke-width="1.8" fill="none"/><path d="M8,-8 a11,11 0 0 1 0,16" stroke="white" stroke-width="1.8" fill="none"/>
</g>
<text x="356.0" y="464" font-size="14" text-anchor="middle" font-weight="bold" fill="#222" font-family="WenQuanYi Zen Hei, Noto Sans CJK TC, Arial, sans-serif" >學習 1/4</text>
<text x="356.0" y="482" font-size="12" text-anchor="middle" font-weight="normal" fill="#444" font-family="WenQuanYi Zen Hei, Noto Sans CJK TC, Arial, sans-serif" >0.3 – 1.3 s</text>
<rect x="480" y="370" width="196" height="147" rx="4" fill="#000" opacity="0.18"/>
<rect x="476" y="365" width="196" height="147" rx="4" fill="#7f7f7f" stroke="#333" stroke-width="1.6"/>
<path d="M567.0,438.5 h14 M574.0,431.5 v14" stroke="white" stroke-width="2"/>
<rect x="613.0" y="463.5" width="30" height="30" fill="#7280C2"/>
<g transform="translate(597.0,478.5) scale(0.9)"><path d="M-9,-4 h5 l6,-5 v18 l-6,-5 h-5 z" fill="white"/>
<path d="M5,-7 l3,3 l-3,3 l3,3 l-3,3 l3,3 l-3,3" stroke="white" stroke-width="1.6" fill="none"/><path d="M10,-9 l3,3 l-3,3 l3,3 l-3,3 l3,3 l-3,3 l3,3" stroke="white" stroke-width="1.6" fill="none" opacity="0.7"/>
</g>
<text x="574.0" y="534" font-size="14" text-anchor="middle" font-weight="bold" fill="#222" font-family="WenQuanYi Zen Hei, Noto Sans CJK TC, Arial, sans-serif" >學習 2/4</text>
<text x="574.0" y="552" font-size="12" text-anchor="middle" font-weight="normal" fill="#444" font-family="WenQuanYi Zen Hei, Noto Sans CJK TC, Arial, sans-serif" >1.3 – 2.3 s</text>
<rect x="698" y="440" width="196" height="147" rx="4" fill="#000" opacity="0.18"/>
<rect x="694" y="435" width="196" height="147" rx="4" fill="#7f7f7f" stroke="#333" stroke-width="1.6"/>
<path d="M785.0,508.5 h14 M792.0,501.5 v14" stroke="white" stroke-width="2"/>
<rect x="831.0" y="453.5" width="30" height="30" fill="#7280C2"/>
<g transform="translate(815.0,468.5) scale(0.9)"><path d="M-9,-4 h5 l6,-5 v18 l-6,-5 h-5 z" fill="white"/>
<path d="M5,-4 a6,6 0 0 1 0,8" stroke="white" stroke-width="1.8" fill="none"/><path d="M8,-8 a11,11 0 0 1 0,16" stroke="white" stroke-width="1.8" fill="none"/>
</g>
<text x="792.0" y="604" font-size="14" text-anchor="middle" font-weight="bold" fill="#222" font-family="WenQuanYi Zen Hei, Noto Sans CJK TC, Arial, sans-serif" >學習 3/4</text>
<text x="792.0" y="622" font-size="12" text-anchor="middle" font-weight="normal" fill="#444" font-family="WenQuanYi Zen Hei, Noto Sans CJK TC, Arial, sans-serif" >2.3 – 3.3 s</text>
<rect x="916" y="510" width="196" height="147" rx="4" fill="#000" opacity="0.18"/>
<rect x="912" y="505" width="196" height="147" rx="4" fill="#7f7f7f" stroke="#333" stroke-width="1.6"/>
<path d="M1003.0,578.5 h14 M1010.0,571.5 v14" stroke="white" stroke-width="2"/>
<rect x="941.0" y="603.5" width="30" height="30" fill="#A273AE"/>
<g transform="translate(987.0,618.5) scale(0.9)"><path d="M-9,-4 h5 l6,-5 v18 l-6,-5 h-5 z" fill="white"/>
<path d="M5,-7 l3,3 l-3,3 l3,3 l-3,3 l3,3 l-3,3" stroke="white" stroke-width="1.6" fill="none"/><path d="M10,-9 l3,3 l-3,3 l3,3 l-3,3 l3,3 l-3,3 l3,3" stroke="white" stroke-width="1.6" fill="none" opacity="0.7"/>
</g>
<text x="1010.0" y="674" font-size="14" text-anchor="middle" font-weight="bold" fill="#222" font-family="WenQuanYi Zen Hei, Noto Sans CJK TC, Arial, sans-serif" >學習 4/4</text>
<text x="1010.0" y="692" font-size="12" text-anchor="middle" font-weight="normal" fill="#444" font-family="WenQuanYi Zen Hei, Noto Sans CJK TC, Arial, sans-serif" >3.3 – 4.3 s</text>
<path d="M464,281 h14 v351 h-14" fill="none" stroke="#555" stroke-width="1.4"/>
<text x="490" y="297" font-size="12" text-anchor="start" font-weight="bold" fill="#333" font-family="WenQuanYi Zen Hei, Noto Sans CJK TC, Arial, sans-serif" >學習期 4.3 s</text>
<text x="490" y="313" font-size="11" text-anchor="start" font-weight="normal" fill="#444" font-family="WenQuanYi Zen Hei, Noto Sans CJK TC, Arial, sans-serif" >四個 顏色+聲音 項目,每個 1 s</text>
<text x="490" y="328" font-size="11" text-anchor="start" font-weight="normal" fill="#444" font-family="WenQuanYi Zen Hei, Noto Sans CJK TC, Arial, sans-serif" >一個一角,位置與順序每試重洗</text>
<text x="490" y="343" font-size="11" text-anchor="start" font-weight="normal" fill="#444" font-family="WenQuanYi Zen Hei, Noto Sans CJK TC, Arial, sans-serif" >每試都出現全部四種組合各一</text>
<rect x="1134" y="580" width="196" height="147" rx="4" fill="#000" opacity="0.18"/>
<rect x="1130" y="575" width="196" height="147" rx="4" fill="#7f7f7f" stroke="#333" stroke-width="1.6"/>
<rect x="1260.0" y="666.5" width="44" height="44" fill="none" stroke="white" stroke-width="2.2"/>
<text x="1228.0" y="744" font-size="14" text-anchor="middle" font-weight="bold" fill="#222" font-family="WenQuanYi Zen Hei, Noto Sans CJK TC, Arial, sans-serif" >提示</text>
<text x="1228.0" y="762" font-size="12" text-anchor="middle" font-weight="normal" fill="#444" font-family="WenQuanYi Zen Hei, Noto Sans CJK TC, Arial, sans-serif" >0 – 1 s</text>
<text x="1228.0" y="780" font-size="11" text-anchor="middle" font-weight="normal" fill="#666" font-family="WenQuanYi Zen Hei, Noto Sans CJK TC, Arial, sans-serif" >空白白框,位置 = cued item</text>
<text x="1228.0" y="795" font-size="11" text-anchor="middle" font-weight="normal" fill="#666" font-family="WenQuanYi Zen Hei, Noto Sans CJK TC, Arial, sans-serif" >學習時的角落</text>
<rect x="1352" y="650" width="196" height="147" rx="4" fill="#000" opacity="0.18"/>
<rect x="1348" y="645" width="196" height="147" rx="4" fill="#7f7f7f" stroke="#333" stroke-width="1.6"/>
<rect x="1478.0" y="736.5" width="44" height="44" fill="none" stroke="white" stroke-width="2.2"/>
<rect x="1485.0" y="743.5" width="30" height="30" fill="#7280C2"/>
<g transform="translate(1467.0,758.5) scale(0.9)"><path d="M-9,-4 h5 l6,-5 v18 l-6,-5 h-5 z" fill="white"/>
<path d="M5,-7 l3,3 l-3,3 l3,3 l-3,3 l3,3 l-3,3" stroke="white" stroke-width="1.6" fill="none"/><path d="M10,-9 l3,3 l-3,3 l3,3 l-3,3 l3,3 l-3,3 l3,3" stroke="white" stroke-width="1.6" fill="none" opacity="0.7"/>
</g>
<text x="1446.0" y="814" font-size="14" text-anchor="middle" font-weight="bold" fill="#222" font-family="WenQuanYi Zen Hei, Noto Sans CJK TC, Arial, sans-serif" >探測</text>
<text x="1446.0" y="832" font-size="12" text-anchor="middle" font-weight="normal" fill="#444" font-family="WenQuanYi Zen Hei, Noto Sans CJK TC, Arial, sans-serif" >1 – 2 s</text>
<text x="1446.0" y="850" font-size="11" text-anchor="middle" font-weight="normal" fill="#666" font-family="WenQuanYi Zen Hei, Noto Sans CJK TC, Arial, sans-serif" >框內出現 target item 的</text>
<text x="1446.0" y="865" font-size="11" text-anchor="middle" font-weight="normal" fill="#666" font-family="WenQuanYi Zen Hei, Noto Sans CJK TC, Arial, sans-serif" >顏色 + 聲音(噪音重新混)</text>
<text x="1446.0" y="880" font-size="11" text-anchor="middle" font-weight="normal" fill="#666" font-family="WenQuanYi Zen Hei, Noto Sans CJK TC, Arial, sans-serif" >invalid:框在 cued、內容是 target</text>
<rect x="1570" y="720" width="196" height="147" rx="4" fill="#000" opacity="0.18"/>
<rect x="1566" y="715" width="196" height="147" rx="4" fill="#7f7f7f" stroke="#333" stroke-width="1.6"/>
<rect x="1598.0" y="742.5" width="24" height="24" fill="#7280C2"/>
<text x="1610.0" y="737.5" font-size="11" text-anchor="middle" font-weight="bold" fill="white" font-family="WenQuanYi Zen Hei, Noto Sans CJK TC, Arial, sans-serif" >[pi]</text>
<rect x="1706.0" y="742.5" width="24" height="24" fill="#A273AE"/>
<text x="1718.0" y="737.5" font-size="11" text-anchor="middle" font-weight="bold" fill="white" font-family="WenQuanYi Zen Hei, Noto Sans CJK TC, Arial, sans-serif" >[bi]</text>
<rect x="1598.0" y="822.5" width="24" height="24" fill="#7280C2"/>
<text x="1610.0" y="817.5" font-size="11" text-anchor="middle" font-weight="bold" fill="white" font-family="WenQuanYi Zen Hei, Noto Sans CJK TC, Arial, sans-serif" >[bi]</text>
<rect x="1706.0" y="822.5" width="24" height="24" fill="#A273AE"/>
<text x="1718.0" y="817.5" font-size="11" text-anchor="middle" font-weight="bold" fill="white" font-family="WenQuanYi Zen Hei, Noto Sans CJK TC, Arial, sans-serif" >[pi]</text>
<rect x="1646.0" y="774.5" width="36" height="28" fill="none" stroke="white" stroke-width="1.2"/>
<path d="M1664.0,774.5 v28 M1646.0,788.5 h36" stroke="white" stroke-width="1.2"/>
<text x="1655.0" y="784.5" font-size="9" text-anchor="middle" font-weight="normal" fill="white" font-family="WenQuanYi Zen Hei, Noto Sans CJK TC, Arial, sans-serif" >i</text>
<text x="1673.0" y="784.5" font-size="9" text-anchor="middle" font-weight="normal" fill="white" font-family="WenQuanYi Zen Hei, Noto Sans CJK TC, Arial, sans-serif" >o</text>
<text x="1655.0" y="798.5" font-size="9" text-anchor="middle" font-weight="normal" fill="white" font-family="WenQuanYi Zen Hei, Noto Sans CJK TC, Arial, sans-serif" >k</text>
<text x="1673.0" y="798.5" font-size="9" text-anchor="middle" font-weight="normal" fill="white" font-family="WenQuanYi Zen Hei, Noto Sans CJK TC, Arial, sans-serif" >l</text>
<text x="1664.0" y="884" font-size="14" text-anchor="middle" font-weight="bold" fill="#222" font-family="WenQuanYi Zen Hei, Noto Sans CJK TC, Arial, sans-serif" >作答</text>
<text x="1664.0" y="902" font-size="12" text-anchor="middle" font-weight="normal" fill="#444" font-family="WenQuanYi Zen Hei, Noto Sans CJK TC, Arial, sans-serif" >直到按鍵</text>
<text x="1664.0" y="920" font-size="11" text-anchor="middle" font-weight="normal" fill="#666" font-family="WenQuanYi Zen Hei, Noto Sans CJK TC, Arial, sans-serif" >四選項 = 色塊 + [bi]/[pi] 標籤</text>
<text x="1664.0" y="935" font-size="11" text-anchor="middle" font-weight="normal" fill="#666" font-family="WenQuanYi Zen Hei, Noto Sans CJK TC, Arial, sans-serif" >位置每試重洗</text>
<text x="1664.0" y="950" font-size="11" text-anchor="middle" font-weight="normal" fill="#666" font-family="WenQuanYi Zen Hei, Noto Sans CJK TC, Arial, sans-serif" >i / o / k / l 對應四角</text>
<rect x="1788" y="790" width="196" height="147" rx="4" fill="#000" opacity="0.18"/>
<rect x="1784" y="785" width="196" height="147" rx="4" fill="#7f7f7f" stroke="#333" stroke-width="1.6" stroke-dasharray="7,5"/>
<rect x="1816.0" y="812.5" width="24" height="24" fill="#7280C2"/>
<text x="1828.0" y="807.5" font-size="11" text-anchor="middle" font-weight="bold" fill="white" font-family="WenQuanYi Zen Hei, Noto Sans CJK TC, Arial, sans-serif" >[pi]</text>
<rect x="1924.0" y="812.5" width="24" height="24" fill="#A273AE"/>
<text x="1936.0" y="807.5" font-size="11" text-anchor="middle" font-weight="bold" fill="white" font-family="WenQuanYi Zen Hei, Noto Sans CJK TC, Arial, sans-serif" >[bi]</text>
<rect x="1816.0" y="892.5" width="24" height="24" fill="#7280C2"/>
<text x="1828.0" y="887.5" font-size="11" text-anchor="middle" font-weight="bold" fill="white" font-family="WenQuanYi Zen Hei, Noto Sans CJK TC, Arial, sans-serif" >[bi]</text>
<rect x="1806.0" y="874.5" width="44" height="48" fill="none" stroke="white" stroke-width="2.4"/>
<rect x="1924.0" y="892.5" width="24" height="24" fill="#A273AE"/>
<text x="1936.0" y="887.5" font-size="11" text-anchor="middle" font-weight="bold" fill="white" font-family="WenQuanYi Zen Hei, Noto Sans CJK TC, Arial, sans-serif" >[pi]</text>
<text x="1882.0" y="862.5" font-size="12" text-anchor="middle" font-weight="bold" fill="white" font-family="WenQuanYi Zen Hei, Noto Sans CJK TC, Arial, sans-serif" >Correct</text>
<text x="1882.0" y="954" font-size="14" text-anchor="middle" font-weight="bold" fill="#222" font-family="WenQuanYi Zen Hei, Noto Sans CJK TC, Arial, sans-serif" >回饋</text>
<text x="1882.0" y="972" font-size="12" text-anchor="middle" font-weight="normal" fill="#444" font-family="WenQuanYi Zen Hei, Noto Sans CJK TC, Arial, sans-serif" >1.5 s</text>
<text x="1882.0" y="990" font-size="11" text-anchor="middle" font-weight="normal" fill="#666" font-family="WenQuanYi Zen Hei, Noto Sans CJK TC, Arial, sans-serif" >只在校準與練習:框出正解</text>
<text x="1882.0" y="1005" font-size="11" text-anchor="middle" font-weight="normal" fill="#666" font-family="WenQuanYi Zen Hei, Noto Sans CJK TC, Arial, sans-serif" >主實驗沒有這一格</text>
<line x1="1992" y1="858.5" x2="2040" y2="858.5" stroke="#333" stroke-width="1.6" marker-end="url(#arr)"/>
<text x="2046" y="852.5" font-size="12" text-anchor="start" font-weight="normal" fill="#222" font-family="WenQuanYi Zen Hei, Noto Sans CJK TC, Arial, sans-serif" >下一試</text>
<text x="2046" y="868.5" font-size="11" text-anchor="start" font-weight="normal" fill="#666" font-family="WenQuanYi Zen Hei, Noto Sans CJK TC, Arial, sans-serif" >(block 結束則休息)</text>
<line x1="30" y1="442" x2="1774" y2="1002" stroke="#999" stroke-width="2" marker-end="url(#arrg)"/>
<text x="1744" y="1024" font-size="13" text-anchor="end" font-weight="normal" fill="#777" font-family="WenQuanYi Zen Hei, Noto Sans CJK TC, Arial, sans-serif" >時間 →</text>
<text x="40" y="1027" font-size="18" text-anchor="start" font-weight="bold" fill="#222" font-family="WenQuanYi Zen Hei, Noto Sans CJK TC, Arial, sans-serif" >C.  時間軸</text>
<rect x="40" y="1047" width="33.0" height="36" fill="#cccccc" stroke="#444" stroke-width="1.2"/>
<text x="56.5" y="1070" font-size="12" text-anchor="middle" font-weight="normal" fill="#222" font-family="WenQuanYi Zen Hei, Noto Sans CJK TC, Arial, sans-serif" >注視</text>
<text x="56.5" y="1099" font-size="11" text-anchor="middle" font-weight="normal" fill="#555" font-family="WenQuanYi Zen Hei, Noto Sans CJK TC, Arial, sans-serif" >0.3 s</text>
<rect x="73.0" y="1047" width="440.0" height="36" fill="#dfe6f5" stroke="#444" stroke-width="1.2"/>
<text x="293.0" y="1070" font-size="12" text-anchor="middle" font-weight="normal" fill="#222" font-family="WenQuanYi Zen Hei, Noto Sans CJK TC, Arial, sans-serif" >學習(4 × 1 s)</text>
<text x="293.0" y="1099" font-size="11" text-anchor="middle" font-weight="normal" fill="#555" font-family="WenQuanYi Zen Hei, Noto Sans CJK TC, Arial, sans-serif" >4 s</text>
<rect x="513.0" y="1047" width="110.0" height="36" fill="#eeeeee" stroke="#444" stroke-width="1.2"/>
<text x="568.0" y="1070" font-size="12" text-anchor="middle" font-weight="normal" fill="#222" font-family="WenQuanYi Zen Hei, Noto Sans CJK TC, Arial, sans-serif" >提示</text>
<text x="568.0" y="1099" font-size="11" text-anchor="middle" font-weight="normal" fill="#555" font-family="WenQuanYi Zen Hei, Noto Sans CJK TC, Arial, sans-serif" >1 s</text>
<rect x="623.0" y="1047" width="110.0" height="36" fill="#e8dff2" stroke="#444" stroke-width="1.2"/>
<text x="678.0" y="1070" font-size="12" text-anchor="middle" font-weight="normal" fill="#222" font-family="WenQuanYi Zen Hei, Noto Sans CJK TC, Arial, sans-serif" >探測</text>
<text x="678.0" y="1099" font-size="11" text-anchor="middle" font-weight="normal" fill="#555" font-family="WenQuanYi Zen Hei, Noto Sans CJK TC, Arial, sans-serif" >1 s</text>
<rect x="733.0" y="1047" width="176.0" height="36" fill="#f3ead9" stroke="#444" stroke-width="1.2"/>
<text x="821.0" y="1070" font-size="12" text-anchor="middle" font-weight="normal" fill="#222" font-family="WenQuanYi Zen Hei, Noto Sans CJK TC, Arial, sans-serif" >作答 RT</text>
<text x="821.0" y="1099" font-size="11" text-anchor="middle" font-weight="normal" fill="#555" font-family="WenQuanYi Zen Hei, Noto Sans CJK TC, Arial, sans-serif" >不限時</text>
<rect x="909.0" y="1047" width="165.0" height="36" fill="#dcefe0" stroke="#444" stroke-width="1.2" stroke-dasharray="6,4"/>
<text x="991.5" y="1070" font-size="12" text-anchor="middle" font-weight="normal" fill="#222" font-family="WenQuanYi Zen Hei, Noto Sans CJK TC, Arial, sans-serif" >回饋</text>
<text x="991.5" y="1099" font-size="11" text-anchor="middle" font-weight="normal" fill="#555" font-family="WenQuanYi Zen Hei, Noto Sans CJK TC, Arial, sans-serif" >1.5 s(選擇性)</text>
<text x="40" y="1127" font-size="12" text-anchor="start" font-weight="normal" fill="#444" font-family="WenQuanYi Zen Hei, Noto Sans CJK TC, Arial, sans-serif" >學習的 4 個項目 onset = 0.3 / 1.3 / 2.3 / 3.3 s;提示框先空 1 s,再在框內出現探測 1 s。喇叭圖示:弧線 = 高 SNR(清楚的 /bi/,標籤 [bi]);鋸齒 = 低 SNR(/bi/ 埋在噪音裡,標籤 [pi])。</text>
<text x="40" y="1145" font-size="12" text-anchor="start" font-weight="normal" fill="#444" font-family="WenQuanYi Zen Hei, Noto Sans CJK TC, Arial, sans-serif" >螢幕背景是中灰(PsychoPy rgb [0,0,0])。兩個顏色是錨點色(h=303)沿 ΔE00 弧長 ±x 的兩側,圖中僅示意。</text>
</svg>